<svg width="220" height="120" xmlns="http://www.w3.org/2000/svg">
  <defs>
    <style>
      .status-text {
        font-family: -apple-system, BlinkMacSystemFont, 'Segoe UI', Helvetica, Arial, sans-serif;
        font-size: 12px;
        font-weight: bold;
        fill: #27AE60;
        text-anchor: middle;
      }
    </style>
    <!-- Gradients for the Azure VM Icon -->
    <linearGradient id="f34d9569-2bd0-4002-8f16-3d01d8106cb5-layering" x1="8.88" y1="12.21" x2="8.88" y2="0.21" gradientUnits="userSpaceOnUse">
      <stop offset="0" stop-color="#0078d4" />
      <stop offset="0.82" stop-color="#5ea0ef" />
    </linearGradient>
    <linearGradient id="bdb45a0b-eb58-4970-a60a-fb2ce314f866-layering" x1="8.88" y1="16.84" x2="8.88" y2="12.21" gradientUnits="userSpaceOnUse">
      <stop offset="0.15" stop-color="#ccc" />
      <stop offset="1" stop-color="#707070" />
    </linearGradient>
  </defs>

  <!-- Layer 0: Background -->
  <rect x="10" y="10" width="200" height="100" rx="15" fill="#DFE6E9" stroke="#B2BEC3" stroke-width="1" />

  <!-- Layer 1: Icon -->
  <g transform="translate(78, 28) scale(3.55)">
    <title>Icon-compute-21</title>
    <rect x="-0.12" y="0.21" width="18" height="12" rx="0.6" fill="url(#f34d9569-2bd0-4002-8f16-3d01d8106cb5-layering)" />
    <polygon points="11.88 4.46 11.88 7.95 8.88 9.71 8.88 6.21 11.88 4.46" fill="#50e6ff" />
    <polygon points="11.88 4.46 8.88 6.22 5.88 4.46 8.88 2.71 11.88 4.46" fill="#c3f1ff" />
    <polygon points="8.88 6.22 8.88 9.71 5.88 7.95 5.88 4.46 8.88 6.22" fill="#9cebff" />
    <polygon points="5.88 7.95 8.88 6.21 8.88 9.71 5.88 7.95" fill="#c3f1ff" />
    <polygon points="11.88 7.95 8.88 6.21 8.88 9.71 11.88 7.95" fill="#9cebff" />
    <path d="M12.49,15.84c-1.78-.28-1.85-1.56-1.85-3.63H7.11c0,2.07-.06,3.35-1.84,3.63a1,1,0,0,0-.89,1h9A1,1,0,0,0,12.49,15.84Z" fill="url(#bdb45a0b-eb58-4970-a60a-fb2ce314f866-layering)" />
  </g>

  <!-- Layer 2: Status Badge -->
  <!-- Background for the text -->
  <rect x="115" y="23" width="54" height="20" rx="10" fill="white" stroke="#B2BEC3" stroke-width="1" />
  <!-- Text on top of the badge -->
  <text x="142" y="38" class="status-text">Online</text>
</svg>